PathFileType	4	(X/Y/Z)	/Users/itak/Documents/Research/Walk-IL/dataset/trc/00493_00167.trc
DataRate	CameraRate	NumFrames	NumMarkers	Units	OrigDataRate	OrigDataStartFrame	OrigNumFrames
100.000000	100.000000	4	53	mm	100.000000	298	596
Frame#	Time	RPSI			LPSI			L3			STRN			T10			C7			CLAV			RBAK			LBAK			LSHO			LUPA			LAEL			LAOL			LWTS			LWPS			LFRA			LIFD			LHPS			LHTS			RSHO			RUPA			RAEL			RAOL			RWTS			RWPS			RFRA			RIFD			RHTS			RHPS			RBHD			LFHD			RFHD			LBHD			LHIP			RHIP			RASI			LASI			LKNE			LTHI			LANK			LTIP			LTOE			LMT1			LMT5			LHEE			RKNE			RTHI			RANK			RTIP			RTOE			RMT1			RMT5			RHEE			
		X1	Y1	Z1	X2	Y2	Z2	X3	Y3	Z3	X4	Y4	Z4	X5	Y5	Z5	X6	Y6	Z6	X7	Y7	Z7	X8	Y8	Z8	X9	Y9	Z9	X10	Y10	Z10	X11	Y11	Z11	X12	Y12	Z12	X13	Y13	Z13	X14	Y14	Z14	X15	Y15	Z15	X16	Y16	Z16	X17	Y17	Z17	X18	Y18	Z18	X19	Y19	Z19	X20	Y20	Z20	X21	Y21	Z21	X22	Y22	Z22	X23	Y23	Z23	X24	Y24	Z24	X25	Y25	Z25	X26	Y26	Z26	X27	Y27	Z27	X28	Y28	Z28	X29	Y29	Z29	X30	Y30	Z30	X31	Y31	Z31	X32	Y32	Z32	X33	Y33	Z33	X34	Y34	Z34	X35	Y35	Z35	X36	Y36	Z36	X37	Y37	Z37	X38	Y38	Z38	X39	Y39	Z39	X40	Y40	Z40	X41	Y41	Z41	X42	Y42	Z42	X43	Y43	Z43	X44	Y44	Z44	X45	Y45	Z45	X46	Y46	Z46	X47	Y47	Z47	X48	Y48	Z48	X49	Y49	Z49	X50	Y50	Z50	X51	Y51	Z51	X52	Y52	Z52	X53	Y53	Z53	

299	2.98	-694.73974609375	911.3295288085938	161.3194732666016	-654.4578247070312	907.613037109375	23.76754760742188	-666.261962890625	1021.074584960938	111.1458206176758	-399.1241760253906	1216.452392578125	180.1546936035156	-679.93115234375	1145.270141601562	106.2931365966797	-616.5654296875	1412.915649414062	146.0468139648438	-434.07421875	1329.609741210938	171.6811218261719	-698.2297973632812	1291.138427734375	218.5442352294922	-627.1618041992188	1369.137329101562	37.72977828979492	-509.2612609863281	1393.51123046875	-12.24624156951904	-489.8659973144531	1280.2724609375	-113.721076965332	-445.8783874511719	1069.65869140625	-151.5424499511719	-536.8587646484375	1043.439697265625	-108.2239685058594	-349.6596374511719	882.109375	-84.12953948974609	-377.0143127441406	860.6826782226562	-149.6681671142578	-410.5021667480469	985.8827514648438	-154.2672882080078	-310.6502380371094	724.8074340820312	-86.75324249267578	-353.5528564453125	786.9379272460938	-146.5929412841797	-315.1176452636719	802.4625854492188	-88.02906036376953	-585.3034057617188	1376.101806640625	315.9185791015625	-622.6346435546875	1316.402221679688	383.1415100097656	-654.4248046875	1036.62939453125	446.2778015136719	-694.9215087890625	1024.846923828125	393.0980834960938	-583.6237182617188	811.8555908203125	433.8582458496094	-661.2196655273438	815.7901611328125	476.0272216796875	-662.9386596679688	979.6760864257812	458.6924438476562	-619.3104248046875	659.26025390625	442.6328125	-591.7794799804688	713.6781616210938	449.7314453125	-663.6578979492188	726.2567138671875	477.3161926269531	-502.2379760742188	1615.630249023438	247.9526672363281	-417.050048828125	1613.8955078125	59.70797729492188	-380.1916809082031	1625.880615234375	184.4274291992188	-567.953125	1604.3525390625	82.92960357666016	-483.8363037109375	809.3280029296875	-46.01675796508789	-601.1604614257812	830.181396484375	334.1671142578125	-492.5096740722656	883.3009643554688	295.7840881347656	-415.6890258789062	859.4328002929688	53.23734283447266	-476.9529418945312	393.3056640625	-10.23070907592773	-436.9456176757812	546.9966430664062	-13.94297504425049	-838.6080322265625	184.9780426025391	-104.5332946777344	-596.502685546875	293.5821838378906	-55.78507232666016	-728.0188598632812	38.58716201782227	15.94679832458496	-781.8941040039062	74.56237030029297	21.80389595031738	-745.5709228515625	72.69527435302734	-82.02390289306641	-874.76806640625	227.7910919189453	-50.09223556518555	-432.67138671875	471.7434387207031	363.8357849121094	-523.4290161132812	715.7757568359375	370.2918395996094	-463.6758728027344	35.73523712158203	383.1170043945312	-417.6053161621094	327.0845642089844	383.2830200195312	-242.9202270507812	47.56259155273438	363.8497619628906	-299.912841796875	53.5088005065918	319.8084716796875	-334.2156372070312	37.68276214599609	425.9536743164062	-521.9224853515625	32.6400146484375	328.7912292480469	
300	2.99	-686.4492797851562	913.2420654296875	167.5579223632812	-648.4366455078125	907.4536743164062	29.30643844604492	-658.8828735351562	1022.280090332031	117.4823303222656	-390.1138916015625	1217.332275390625	182.2519683837891	-672.056640625	1146.511962890625	113.3155212402344	-608.1107788085938	1414.101806640625	152.3778076171875	-425.0130004882812	1330.585083007812	174.6390228271484	-688.1992797851562	1292.167236328125	226.2328796386719	-620.5955810546875	1370.477172851562	44.21136474609375	-503.52490234375	1394.945678710938	-7.764304161071777	-485.8456115722656	1281.818969726562	-109.6557998657227	-443.5592651367188	1070.615478515625	-147.8945617675781	-534.4613647460938	1045.59228515625	-103.5554656982422	-351.0161743164062	879.39794921875	-84.05826568603516	-379.7655334472656	859.8361206054688	-149.6661224365234	-410.1136779785156	986.1016845703125	-152.0621948242188	-318.2750244140625	720.5087890625	-89.38797760009766	-359.1960754394531	785.1519775390625	-147.8177642822266	-319.7278137207031	798.220458984375	-89.36045837402344	-573.6840209960938	1377.14306640625	321.5753173828125	-609.8875122070312	1317.643432617188	389.5308837890625	-641.2701416015625	1037.63525390625	452.7963256835938	-682.6299438476562	1025.958862304688	400.3109130859375	-570.5687255859375	812.9457397460938	438.756103515625	-647.447998046875	816.6480712890625	482.1250915527344	-649.52001953125	980.6239624023438	465.2200927734375	-605.761474609375	660.2603149414062	447.7820129394531	-578.326171875	714.7361450195312	454.6108093261719	-649.7206420898438	727.1160278320312	483.2754211425781	-492.42138671875	1616.539794921875	252.8154907226562	-410.3235168457031	1615.411376953125	63.16085052490234	-371.4576721191406	1627.24462890625	187.316162109375	-560.8538818359375	1605.493286132812	88.76881408691406	-477.8183288574219	808.9032592773438	-42.29854965209961	-590.7383422851562	831.9917602539062	339.0256652832031	-482.4409790039062	884.1500244140625	298.8214721679688	-408.8519897460938	860.1903076171875	55.37067031860352	-459.3145141601562	394.9925231933594	-6.229639053344727	-422.7605285644531	548.1864624023438	-11.42642307281494	-827.2333374023438	195.5853881835938	-93.19689178466797	-581.64453125	298.2974853515625	-50.11547088623047	-714.3184814453125	39.16433334350586	14.8258228302002	-767.3550415039062	78.67795562744141	25.78656387329102	-735.6068115234375	80.4517822265625	-79.52110290527344	-860.50048828125	236.470458984375	-35.88861083984375	-426.3175964355469	471.3336791992188	365.7847900390625	-513.9418334960938	716.6725463867188	373.8743286132812	-463.4455871582031	35.98828506469727	382.9438781738281	-413.1587219238281	326.3485107421875	384.374267578125	-242.6471405029297	46.96841812133789	363.5933227539062	-299.6411743164062	53.35916900634766	319.6263427734375	-334.0953063964844	37.71400451660156	425.9665832519531	-521.8259887695312	32.89944458007812	328.7524108886719	
301	3	-678.3411254882812	915.2625122070312	173.7451019287109	-642.7122802734375	907.6238403320312	34.82159042358398	-651.7230224609375	1023.518920898438	123.7102508544922	-381.260009765625	1218.135986328125	183.9303283691406	-664.3994140625	1147.833862304688	120.2360076904297	-599.6619873046875	1415.341064453125	158.5025024414062	-416.0531921386719	1331.490966796875	177.2107849121094	-678.171142578125	1293.280639648438	233.7757720947266	-614.1306762695312	1371.853271484375	50.54916381835938	-497.9484558105469	1396.316040039062	-3.56061315536499	-482.1251525878906	1283.235595703125	-105.8158493041992	-441.3262023925781	1071.56103515625	-144.4615173339844	-532.1165771484375	1047.638671875	-99.18241882324219	-352.5464172363281	876.8697509765625	-83.94705200195312	-382.4020080566406	859.23583984375	-149.6876525878906	-409.7500610351562	986.4173583984375	-149.9729461669922	-326.3175354003906	716.5932006835938	-91.73515319824219	-364.8495483398438	783.6680297851562	-148.9304351806641	-324.6233520507812	794.2266235351562	-90.46704864501953	-561.9410400390625	1378.227172851562	326.9315795898438	-596.9490966796875	1318.945434570312	395.6589965820312	-627.9067993164062	1038.718383789062	459.2694091796875	-670.2200927734375	1027.109008789062	407.5907287597656	-557.14794921875	814.204345703125	443.51123046875	-633.2138671875	817.5707397460938	488.2022705078125	-635.822509765625	981.6396484375	471.7264404296875	-591.5416259765625	661.3952026367188	452.8172302246094	-564.3253784179688	715.97265625	459.3179321289062	-635.1627197265625	728.0284423828125	489.209716796875	-482.6477966308594	1617.4931640625	257.4027404785156	-403.7332153320312	1616.992797851562	66.35977935791016	-362.8377075195312	1628.672973632812	189.9048767089844	-553.8281860351562	1606.67626953125	94.39318084716797	-472.4929504394531	808.938720703125	-39.05735015869141	-580.4122314453125	833.6928100585938	343.5594787597656	-472.4508361816406	884.8974609375	301.431884765625	-402.3587951660156	861.1654663085938	57.02043914794922	-441.9999694824219	397.4418334960938	-2.438305139541626	-409.1055603027344	550.0105590820312	-9.378510475158691	-814.948974609375	205.1287689208984	-81.26311492919922	-566.653564453125	303.2205200195312	-44.29385375976562	-698.3887939453125	40.26205444335938	14.0576114654541	-750.7896728515625	82.58531188964844	30.03655624389648	-723.705810546875	88.62908172607422	-76.48789978027344	-845.7174682617188	243.4822387695312	-21.15923500061035	-420.2216186523438	470.9058532714844	367.4218139648438	-504.5582580566406	717.5138549804688	377.0660400390625	-463.2084350585938	36.26971054077148	382.7569274902344	-408.9522094726562	325.6446838378906	385.259521484375	-242.3719177246094	46.49032592773438	363.3645324707031	-299.3499755859375	53.23414993286133	319.443603515625	-333.9639282226562	37.71427917480469	425.9484558105469	-521.726318359375	33.19830322265625	328.7059631347656	
302	3.01	-670.39208984375	917.34130859375	179.8335113525391	-637.2044067382812	908.1890258789062	40.29266738891602	-644.7529907226562	1024.822143554688	129.8322143554688	-372.5631713867188	1218.908935546875	185.2192993164062	-656.9412841796875	1149.255004882812	127.0469284057617	-591.2122192382812	1416.645263671875	164.4133453369141	-407.2196350097656	1332.363159179688	179.4122772216797	-668.1626586914062	1294.499877929688	241.1602935791016	-607.7503662109375	1373.28515625	56.73622894287109	-492.5111389160156	1397.633056640625	0.373874306678772	-478.6965026855469	1284.535522460938	-102.1867218017578	-439.2633972167969	1072.49853515625	-141.2698516845703	-529.8817749023438	1049.584228515625	-95.05841827392578	-354.2253112792969	874.5764770507812	-83.81348419189453	-384.9306640625	858.87890625	-149.7247619628906	-409.4598083496094	986.8280639648438	-148.0217437744141	-334.6008605957031	713.15478515625	-93.77874755859375	-370.4302978515625	782.4998168945312	-149.9243774414062	-329.6882629394531	790.5725708007812	-91.35868072509766	-550.0911254882812	1379.351196289062	331.9876098632812	-583.8326416015625	1320.283325195312	401.5100402832031	-614.2954711914062	1039.869140625	465.6786804199219	-657.663818359375	1028.289916992188	414.9365844726562	-543.377197265625	815.6087646484375	448.106689453125	-618.5194091796875	818.5614013671875	494.2542114257812	-621.8179931640625	982.7178344726562	478.1947021484375	-576.7172241210938	662.651611328125	457.7446899414062	-549.829345703125	717.361328125	463.8477172851562	-620.0125732421875	729.0009765625	495.1273803710938	-472.9057312011719	1618.518798828125	261.6893005371094	-397.2886047363281	1618.631958007812	69.27975463867188	-354.331787109375	1630.176879882812	192.1607360839844	-546.8731689453125	1607.890014648438	99.79817199707031	-467.851318359375	809.5009155273438	-36.26486968994141	-570.2247924804688	835.2650146484375	347.7616271972656	-462.5779113769531	885.551025390625	303.6542663574219	-396.1910400390625	862.419921875	58.24528503417969	-425.0409545898438	400.6318054199219	1.099942326545715	-396.0068664550781	552.4811401367188	-7.770570278167725	-801.7594604492188	213.2884063720703	-68.8951416015625	-551.5388793945312	308.2357177734375	-38.38937377929688	-680.6173095703125	41.80165863037109	13.92507648468018	-732.5184936523438	86.05059814453125	34.64785003662109	-710.0166625976562	96.71108245849609	-72.74984741210938	-830.3853759765625	248.7466735839844	-6.131888389587402	-414.4094848632812	470.4666748046875	368.7822570800781	-495.3389587402344	718.2935791015625	379.8907470703125	-462.9676513671875	36.58660888671875	382.5529479980469	-405.0197448730469	324.9817810058594	385.9689025878906	-242.0865325927734	46.09211730957031	363.1723937988281	-299.0415649414062	53.11505126953125	319.2734069824219	-333.8246154785156	37.68552780151367	425.9166259765625	-521.611572265625	33.54049682617188	328.6416625976562	
